Coordinates
version=1
nRows=22
nColumns=24
inDegrees=yes

Units are S.I. units (second, meters, Newtons, ...)
Angles are in degrees.

endheader
time	pelvis_tilt	pelvis_list	pelvis_rotation	pelvis_tx	pelvis_ty	pelvis_tz	hip_flexion_r	hip_adduction_r	hip_rotation_r	knee_angle_r	ankle_angle_r	subtalar_angle_r	mtp_angle_r	hip_flexion_l	hip_adduction_l	hip_rotation_l	knee_angle_l	ankle_angle_l	subtalar_angle_l	mtp_angle_l	lumbar_extension	lumbar_bending	lumbar_rotation
      1.45383333	      2.39558633	      4.81468133	     -1.18162293	      0.22493521	      1.02917623	      0.29011008	     11.49816089	     -7.65054664	     -8.82396816	    -68.86884466	     -3.67583641	     -6.98915991	      3.12160661	      6.22264281	      9.21521112	      3.38656044	    -13.08633239	      5.24454237	    -12.80810259	     -0.55647921	     -4.78048566	     -7.58569022	      3.55903900
      1.45800000	      2.37598987	      4.66046382	     -1.23045155	      0.22966582	      1.02988734	      0.28988195	     12.20216584	     -7.50009307	     -8.80148615	    -68.84432931	     -3.15348259	     -6.84096060	      3.12275822	      5.78040142	      9.07069116	      3.45229800	    -12.75221907	      5.28858368	    -12.86944218	     -0.53513286	     -4.82082009	     -7.38675904	      3.52977280
      1.46216667	      2.37776927	      4.49735986	     -1.27829734	      0.23439019	      1.03062298	      0.28966579	     12.86428976	     -7.33450261	     -8.79220989	    -68.74616105	     -2.70591448	     -6.85238173	      3.13086443	      5.32179077	      8.91216494	      3.47794845	    -12.43212565	      5.35503191	    -12.88657057	     -0.52643801	     -4.88241524	     -7.17387988	      3.50474870
      1.46633333	      2.39208538	      4.35056134	     -1.30782026	      0.23906933	      1.03131758	      0.28937832	     13.50651179	     -7.20308152	     -8.80321870	    -68.62276996	     -2.18486136	     -6.65184812	      3.13846791	      4.84738912	      8.78366264	      3.58042267	    -12.10267146	      5.37321206	    -12.99213347	     -0.50454000	     -4.99898184	     -6.95893198	      3.45121291
      1.47050000	      2.37334898	      4.19142389	     -1.33082929	      0.24375174	      1.03194902	      0.28910107	     14.16637542	     -7.04674318	     -8.82040460	    -68.42850692	     -1.74748478	     -6.62581930	      3.14775563	      4.42164132	      8.63568081	      3.64037987	    -11.80101120	      5.41745767	    -13.04635467	     -0.49196235	     -5.07526344	     -6.72483394	      3.40915792
      1.47466667	      2.37158203	      4.03555796	     -1.35717787	      0.24844424	      1.03256632	      0.28884199	     14.79315615	     -6.88962937	     -8.83721534	    -68.17961391	     -1.33459859	     -6.65125639	      3.15857251	      3.97188735	      8.48861343	      3.68594092	    -11.48719297	      5.48774454	    -13.06253860	     -0.48513719	     -5.12519364	     -6.52687490	      3.37089573
      1.47883333	      2.35992909	      3.87686440	     -1.36661527	      0.25312798	      1.03315318	      0.28855249	     15.41088479	     -6.73220660	     -8.87142566	    -67.87212081	     -0.92155601	     -6.64312531	      3.17103734	      3.53970881	      8.33998881	      3.74867648	    -11.18803468	      5.55040511	    -13.08993657	     -0.47904852	     -5.19278989	     -6.30199123	      3.32346949
      1.48300000	      2.39888031	      3.73002893	     -1.36097349	      0.25777446	      1.03377746	      0.28819985	     15.95754763	     -6.60316728	     -8.92574433	    -67.51806580	     -0.47181333	     -6.51387507	      3.19204293	      3.04109358	      8.21606349	      3.90467951	    -10.85907956	      5.55328900	    -13.23729055	     -0.46549443	     -5.35874550	     -6.08168931	      3.19263510
      1.48716667	      2.37894699	      3.57537249	     -1.35590363	      0.26240735	      1.03428601	      0.28788276	     16.55699218	     -6.44913524	     -8.97192535	    -67.10505726	     -0.08662100	     -6.56336444	      3.20658868	      2.63327856	      8.07151493	      3.96946302	    -10.58284958	      5.60768831	    -13.27310682	     -0.46003152	     -5.42715113	     -5.85492374	      3.14166822
      1.49133333	      2.36511851	      3.42752794	     -1.35005051	      0.26707282	      1.03476995	      0.28756211	     17.12889813	     -6.30365866	     -9.02319367	    -66.63571744	      0.29710305	     -6.61258949	      3.22026624	      2.21366889	      7.93316260	      4.02868929	    -10.29815626	      5.67834063	    -13.29304232	     -0.45640839	     -5.47340226	     -5.64887151	      3.08573276
      1.49550000	      2.39550012	      3.26729252	     -1.32312433	      0.27167466	      1.03529428	      0.28719381	     17.63180549	     -6.15314342	     -9.09662371	    -66.10636585	      0.67543165	     -6.58738723	      3.24224944	      1.74942252	      7.78730752	      4.15993670	    -10.01517884	      5.72379812	    -13.36726935	     -0.45220402	     -5.63527868	     -5.40713022	      2.96220235
      1.49966667	      2.38707304	      3.12864352	     -1.30590748	      0.27629988	      1.03572137	      0.28685679	     18.16567116	     -6.01687523	     -9.15227605	    -65.53008917	      1.04313335	     -6.63061730	      3.26164224	      1.33223711	      7.65926405	      4.24495535	     -9.73965296	      5.77576332	    -13.41290114	     -0.45070351	     -5.71561866	     -5.20739943	      2.87239397
      1.50383333	      2.37940043	      2.98601307	     -1.28212189	      0.28094460	      1.03612582	      0.28650646	     18.67507460	     -5.87828891	     -9.22071693	    -64.89254875	      1.40006421	     -6.69798551	      3.27623223	      0.91880175	      7.52405571	      4.30603009	     -9.47369445	      5.84964252	    -13.42675130	     -0.44984183	     -5.76479849	     -4.99381355	      2.80570503
      1.50800000	      2.36607153	      2.83575041	     -1.24271394	      0.28553550	      1.03648001	      0.28613706	     19.17314632	     -5.72971830	     -9.29300247	    -64.19934031	      1.73110328	     -6.72569713	      3.29571941	      0.52370153	      7.38224584	      4.41855508	     -9.23072229	      5.91650671	    -13.46885290	     -0.45070607	     -5.86891292	     -4.77958318	      2.68699607
      1.51216667	      2.40987040	      2.70249152	     -1.21113817	      0.29015752	      1.03690107	      0.28577534	     19.58554481	     -5.60226466	     -9.36477292	    -63.44469717	      2.03832137	     -6.77638436	      3.32319225	      0.04589764	      7.25960455	      4.54168026	     -8.94198514	      5.96785813	    -13.53204573	     -0.45644985	     -6.00908702	     -4.57631074	      2.52196601
      1.51633333	      2.37098017	      2.58180166	     -1.17974000	      0.29477539	      1.03714336	      0.28543079	     20.07906885	     -5.47873144	     -9.42085705	    -62.65376722	      2.37261798	     -6.85809179	      3.33678168	     -0.31333727	      7.14329025	      4.59562091	     -8.71041111	      6.04413422	    -13.53325974	     -0.45812994	     -6.03661923	     -4.38686568	      2.46808840
      1.52050000	      2.38274646	      2.43446077	     -1.12784338	      0.29938258	      1.03746107	      0.28506456	     20.47917381	     -5.32858031	     -9.50063555	    -61.77362548	      2.61908200	     -6.92731398	      3.36198192	     -0.73690215	      7.00049580	      4.73038130	     -8.46199496	      6.11466481	    -13.58383416	     -0.46859408	     -6.15946347	     -4.17416400	      2.29135168
      1.52466667	      2.35382571	      2.31926225	     -1.09135613	      0.30400799	      1.03766376	      0.28472197	     20.91651956	     -5.20663572	     -9.55541298	    -60.86548460	      2.92391989	     -7.00936037	      3.37391953	     -1.10387055	      6.88826588	      4.78874569	     -8.23580090	      6.19473079	    -13.57646954	     -0.47227543	     -6.19733818	     -3.98792040	      2.23367564
      1.52883333	      2.36245269	      2.17689125	     -1.03034844	      0.30861018	      1.03791422	      0.28436700	     21.27455158	     -5.05691739	     -9.63560478	    -59.86852164	      3.13885684	     -7.09705384	      3.38781779	     -1.50526362	      6.74523708	      4.89444066	     -8.02554145	      6.28005268	    -13.60045402	     -0.48197957	     -6.31741680	     -3.78623699	      2.10364913
      1.53300000	      2.32833788	      2.07806974	     -0.99745931	      0.31326525	      1.03802712	      0.28405470	     21.67621648	     -4.94443361	     -9.67576509	    -58.85326110	      3.39044504	     -7.19452260	      3.39646215	     -1.87600349	      6.64802653	      4.97081114	     -7.78056764	      6.36705547	    -13.58725360	     -0.48773730	     -6.34004304	     -3.61758471	      2.01776504
      1.53716667	      2.35565632	      1.94103958	     -0.93086896	      0.31789411	      1.03825922	      0.28371674	     21.96089470	     -4.79247597	     -9.75167996	    -57.72521437	      3.50360764	     -7.35271970	      3.40849379	     -2.30597761	      6.50828729	      5.10162458	     -7.55487639	      6.44310090	    -13.63204063	     -0.51111810	     -6.48042236	     -3.43053330	      1.80388755
      1.54133333	      2.30647561	      1.83150275	     -0.87240528	      0.32254077	      1.03831210	      0.28340354	     22.32086597	     -4.66378191	     -9.80442696	    -56.57528000	      3.69777352	     -7.45877192	      3.41482927	     -2.63663368	      6.39507029	      5.18483075	     -7.36198904	      6.52763013	    -13.64002342	     -0.52542212	     -6.50927320	     -3.25784685	      1.70902305
